# xmcd
#
# Track frame offsets:
#	150
#	11979
#	22787
#	32118
#	46812
#	60582
#	70538
#	83739
#	93702
#	109583
#	132386
#	147511
#
# Disc length: 2112 seconds
#
# Revision: 1
# Processed by: cddbd v1.4PL0 Copyright (c) Steve Scherf et al.
# Submitted via: CDmax 1.8
#
DISCID=9b083e0c
DTITLE=Herb Steiner - Rancho Rhythm Roundup
DYEAR=2002
DGENRE=Country
TTITLE0=Rancho Boogie
TTITLE1=Coconut Grove
TTITLE2=Joaquin Special
TTITLE3=On The Alamo
TTITLE4=Blue Skirt Waltz
TTITLE5=Little Coquette
TTITLE6=Texas Steel Guitar
TTITLE7=South
TTITLE8=Steel Guitar Jubilee
TTITLE9=Pennies From Heaven
TTITLE10=Tuxedo Junction
TTITLE11=Steel Guitar Rag
EXTD=
EXTT0=
EXTT1=
EXTT2=
EXTT3=
EXTT4=
EXTT5=
EXTT6=
EXTT7=
EXTT8=
EXTT9=
EXTT10=
EXTT11=
PLAYORDER=
